<svg xmlns="http://www.w3.org/2000/svg" viewBox="0 0 512 512" role="img" aria-label="Gastospe">
  <rect width="512" height="512" rx="112" fill="#21414b"/>
  <circle cx="256" cy="256" r="170" fill="none" stroke="#f6c32f" stroke-width="28"/>
  <path
    fill="#f6c32f"
    d="M279 118v38c34 4 63 26 79 55l-45 23c-10-19-30-31-55-31-25 0-41 12-41 28 0 17 16 25 53 33 61 14 94 36 94 86 0 46-33 78-85 86v40h-43v-39c-41-5-73-28-90-65l46-21c12 23 35 37 66 37 29 0 48-14 48-34 0-18-14-28-56-38-58-14-91-33-91-82 0-43 31-75 79-83v-33z"
  />
</svg>
